<?xml version="1.0" standalone="no"?>
<!DOCTYPE svg PUBLIC "-//W3C//DTD SVG 20010904//EN"
 "http://www.w3.org/TR/2001/REC-SVG-20010904/DTD/svg10.dtd">
<svg version="1.0" xmlns="http://www.w3.org/2000/svg"
 width="700.000000pt" height="700.000000pt" viewBox="0 0 700.000000 700.000000"
 preserveAspectRatio="xMidYMid meet">
<metadata>
Created by potrace 1.11, written by Peter Selinger 2001-2013
</metadata>
<g transform="translate(0.000000,700.000000) scale(0.100000,-0.100000)"
fill="#000000" stroke="none">
<path d="M4904 6510 c-22 -11 -52 -33 -66 -48 -14 -15 -428 -801 -918 -1747
-491 -946 -1140 -2197 -1443 -2780 -303 -583 -566 -1093 -585 -1132 -64 -135
-40 -252 62 -302 72 -36 188 -41 250 -11 25 12 56 35 67 52 28 38 2942 5655
2958 5698 35 101 -21 225 -124 271 -55 26 -148 25 -201 -1z"/>
<path d="M1570 4797 c-25 -7 -55 -19 -66 -27 -11 -8 -343 -276 -738 -595 -670
-542 -718 -583 -743 -632 -22 -47 -25 -63 -21 -123 4 -55 12 -80 34 -115 21
-32 222 -200 743 -620 392 -317 723 -582 735 -590 11 -8 42 -19 68 -24 141
-32 279 76 281 218 1 117 24 95 -659 647 -338 273 -614 498 -614 500 0 1 277
226 615 499 681 551 659 529 658 645 -2 149 -147 257 -293 217z"/>
<path d="M5307 4796 c-100 -28 -170 -116 -170 -216 0 -115 -22 -94 659 -645
591 -478 615 -498 597 -515 -10 -10 -254 -208 -543 -441 -289 -233 -557 -450
-597 -482 -87 -71 -116 -123 -116 -206 0 -92 54 -171 143 -209 49 -20 142 -18
188 5 20 10 226 172 457 359 231 187 555 449 720 583 348 281 350 283 350 407
0 127 6 121 -490 521 -236 190 -560 452 -720 581 -159 129 -303 241 -320 247
-50 21 -107 25 -158 11z"/>
</g>
</svg>
